<mxfile host="Electron" agent="Mozilla/5.0 (Windows NT 10.0; Win64; x64) AppleWebKit/537.36 (KHTML, like Gecko) draw.io/24.7.8 Chrome/128.0.6613.36 Electron/32.0.1 Safari/537.36" version="24.7.8">
  <diagram name="Page-1" id="p3_qX1tuQRv4mlWR0_fQ">
    <mxGraphModel dx="2049" dy="1194" grid="1" gridSize="10" guides="1" tooltips="1" connect="1" arrows="1" fold="1" page="1" pageScale="1" pageWidth="850" pageHeight="1100" math="0" shadow="0">
      <root>
        <mxCell id="0" />
        <mxCell id="1" parent="0" />
        <mxCell id="syA2_hkcK1VpC3jO_S1U-2" value="" style="swimlane;startSize=0;" vertex="1" parent="1">
          <mxGeometry x="40" y="270" width="200" height="210" as="geometry" />
        </mxCell>
        <mxCell id="syA2_hkcK1VpC3jO_S1U-3" value="" style="rounded=0;whiteSpace=wrap;html=1;" vertex="1" parent="syA2_hkcK1VpC3jO_S1U-2">
          <mxGeometry y="50" width="200" height="110" as="geometry" />
        </mxCell>
        <mxCell id="syA2_hkcK1VpC3jO_S1U-4" value="0" style="rounded=0;whiteSpace=wrap;html=1;" vertex="1" parent="syA2_hkcK1VpC3jO_S1U-2">
          <mxGeometry y="160" width="70" height="50" as="geometry" />
        </mxCell>
        <mxCell id="syA2_hkcK1VpC3jO_S1U-5" value="0" style="rounded=0;whiteSpace=wrap;html=1;" vertex="1" parent="syA2_hkcK1VpC3jO_S1U-2">
          <mxGeometry x="70" y="160" width="60" height="50" as="geometry" />
        </mxCell>
        <mxCell id="syA2_hkcK1VpC3jO_S1U-6" value="10" style="rounded=0;whiteSpace=wrap;html=1;" vertex="1" parent="syA2_hkcK1VpC3jO_S1U-2">
          <mxGeometry x="130" y="160" width="70" height="50" as="geometry" />
        </mxCell>
        <mxCell id="syA2_hkcK1VpC3jO_S1U-7" value="0" style="rounded=0;whiteSpace=wrap;html=1;" vertex="1" parent="syA2_hkcK1VpC3jO_S1U-2">
          <mxGeometry width="70" height="50" as="geometry" />
        </mxCell>
        <mxCell id="syA2_hkcK1VpC3jO_S1U-8" value="" style="rounded=0;whiteSpace=wrap;html=1;" vertex="1" parent="syA2_hkcK1VpC3jO_S1U-2">
          <mxGeometry x="70" width="60" height="50" as="geometry" />
        </mxCell>
        <mxCell id="syA2_hkcK1VpC3jO_S1U-9" value="10" style="rounded=0;whiteSpace=wrap;html=1;" vertex="1" parent="syA2_hkcK1VpC3jO_S1U-2">
          <mxGeometry x="130" width="70" height="50" as="geometry" />
        </mxCell>
        <mxCell id="syA2_hkcK1VpC3jO_S1U-10" value="1" style="text;html=1;align=center;verticalAlign=middle;whiteSpace=wrap;rounded=0;" vertex="1" parent="syA2_hkcK1VpC3jO_S1U-2">
          <mxGeometry x="70" y="90" width="60" height="30" as="geometry" />
        </mxCell>
        <mxCell id="syA2_hkcK1VpC3jO_S1U-12" value="10" style="text;html=1;align=center;verticalAlign=middle;whiteSpace=wrap;rounded=0;" vertex="1" parent="syA2_hkcK1VpC3jO_S1U-2">
          <mxGeometry x="70" y="10" width="60" height="30" as="geometry" />
        </mxCell>
        <mxCell id="syA2_hkcK1VpC3jO_S1U-18" value="" style="swimlane;startSize=0;" vertex="1" parent="1">
          <mxGeometry x="320" y="150" width="200" height="210" as="geometry" />
        </mxCell>
        <mxCell id="syA2_hkcK1VpC3jO_S1U-19" value="" style="rounded=0;whiteSpace=wrap;html=1;" vertex="1" parent="syA2_hkcK1VpC3jO_S1U-18">
          <mxGeometry y="50" width="200" height="110" as="geometry" />
        </mxCell>
        <mxCell id="syA2_hkcK1VpC3jO_S1U-20" value="14" style="rounded=0;whiteSpace=wrap;html=1;" vertex="1" parent="syA2_hkcK1VpC3jO_S1U-18">
          <mxGeometry y="160" width="70" height="50" as="geometry" />
        </mxCell>
        <mxCell id="syA2_hkcK1VpC3jO_S1U-21" value="4" style="rounded=0;whiteSpace=wrap;html=1;" vertex="1" parent="syA2_hkcK1VpC3jO_S1U-18">
          <mxGeometry x="70" y="160" width="60" height="50" as="geometry" />
        </mxCell>
        <mxCell id="syA2_hkcK1VpC3jO_S1U-22" value="20" style="rounded=0;whiteSpace=wrap;html=1;" vertex="1" parent="syA2_hkcK1VpC3jO_S1U-18">
          <mxGeometry x="130" y="160" width="70" height="50" as="geometry" />
        </mxCell>
        <mxCell id="syA2_hkcK1VpC3jO_S1U-23" value="10" style="rounded=0;whiteSpace=wrap;html=1;" vertex="1" parent="syA2_hkcK1VpC3jO_S1U-18">
          <mxGeometry width="70" height="50" as="geometry" />
        </mxCell>
        <mxCell id="syA2_hkcK1VpC3jO_S1U-24" value="" style="rounded=0;whiteSpace=wrap;html=1;" vertex="1" parent="syA2_hkcK1VpC3jO_S1U-18">
          <mxGeometry x="70" width="60" height="50" as="geometry" />
        </mxCell>
        <mxCell id="syA2_hkcK1VpC3jO_S1U-25" value="16" style="rounded=0;whiteSpace=wrap;html=1;" vertex="1" parent="syA2_hkcK1VpC3jO_S1U-18">
          <mxGeometry x="130" width="70" height="50" as="geometry" />
        </mxCell>
        <mxCell id="syA2_hkcK1VpC3jO_S1U-26" value="2" style="text;html=1;align=center;verticalAlign=middle;whiteSpace=wrap;rounded=0;" vertex="1" parent="syA2_hkcK1VpC3jO_S1U-18">
          <mxGeometry x="70" y="90" width="60" height="30" as="geometry" />
        </mxCell>
        <mxCell id="syA2_hkcK1VpC3jO_S1U-28" value="6" style="text;html=1;align=center;verticalAlign=middle;whiteSpace=wrap;rounded=0;" vertex="1" parent="syA2_hkcK1VpC3jO_S1U-18">
          <mxGeometry x="70" y="10" width="60" height="30" as="geometry" />
        </mxCell>
        <mxCell id="syA2_hkcK1VpC3jO_S1U-33" value="" style="endArrow=classic;html=1;rounded=0;exitX=1;exitY=0.5;exitDx=0;exitDy=0;entryX=0;entryY=0.5;entryDx=0;entryDy=0;strokeColor=#000000;strokeWidth=3;" edge="1" parent="1" source="syA2_hkcK1VpC3jO_S1U-3" target="syA2_hkcK1VpC3jO_S1U-18">
          <mxGeometry width="50" height="50" relative="1" as="geometry">
            <mxPoint x="730" y="710" as="sourcePoint" />
            <mxPoint x="780" y="660" as="targetPoint" />
          </mxGeometry>
        </mxCell>
        <mxCell id="syA2_hkcK1VpC3jO_S1U-34" value="" style="swimlane;startSize=0;" vertex="1" parent="1">
          <mxGeometry x="320" y="400" width="200" height="210" as="geometry" />
        </mxCell>
        <mxCell id="syA2_hkcK1VpC3jO_S1U-35" value="" style="rounded=0;whiteSpace=wrap;html=1;" vertex="1" parent="syA2_hkcK1VpC3jO_S1U-34">
          <mxGeometry y="50" width="200" height="110" as="geometry" />
        </mxCell>
        <mxCell id="syA2_hkcK1VpC3jO_S1U-36" value="10" style="rounded=0;whiteSpace=wrap;html=1;" vertex="1" parent="syA2_hkcK1VpC3jO_S1U-34">
          <mxGeometry y="160" width="70" height="50" as="geometry" />
        </mxCell>
        <mxCell id="syA2_hkcK1VpC3jO_S1U-37" value="0" style="rounded=0;whiteSpace=wrap;html=1;" vertex="1" parent="syA2_hkcK1VpC3jO_S1U-34">
          <mxGeometry x="70" y="160" width="60" height="50" as="geometry" />
        </mxCell>
        <mxCell id="syA2_hkcK1VpC3jO_S1U-38" value="20" style="rounded=0;whiteSpace=wrap;html=1;" vertex="1" parent="syA2_hkcK1VpC3jO_S1U-34">
          <mxGeometry x="130" y="160" width="70" height="50" as="geometry" />
        </mxCell>
        <mxCell id="syA2_hkcK1VpC3jO_S1U-39" value="10" style="rounded=0;whiteSpace=wrap;html=1;" vertex="1" parent="syA2_hkcK1VpC3jO_S1U-34">
          <mxGeometry width="70" height="50" as="geometry" />
        </mxCell>
        <mxCell id="syA2_hkcK1VpC3jO_S1U-40" value="" style="rounded=0;whiteSpace=wrap;html=1;" vertex="1" parent="syA2_hkcK1VpC3jO_S1U-34">
          <mxGeometry x="70" width="60" height="50" as="geometry" />
        </mxCell>
        <mxCell id="syA2_hkcK1VpC3jO_S1U-41" value="20" style="rounded=0;whiteSpace=wrap;html=1;" vertex="1" parent="syA2_hkcK1VpC3jO_S1U-34">
          <mxGeometry x="130" width="70" height="50" as="geometry" />
        </mxCell>
        <mxCell id="syA2_hkcK1VpC3jO_S1U-42" value="3" style="text;html=1;align=center;verticalAlign=middle;whiteSpace=wrap;rounded=0;" vertex="1" parent="syA2_hkcK1VpC3jO_S1U-34">
          <mxGeometry x="70" y="90" width="60" height="30" as="geometry" />
        </mxCell>
        <mxCell id="syA2_hkcK1VpC3jO_S1U-44" value="&lt;div&gt;10&lt;/div&gt;" style="text;html=1;align=center;verticalAlign=middle;whiteSpace=wrap;rounded=0;" vertex="1" parent="syA2_hkcK1VpC3jO_S1U-34">
          <mxGeometry x="70" y="10" width="60" height="30" as="geometry" />
        </mxCell>
        <mxCell id="syA2_hkcK1VpC3jO_S1U-50" value="" style="swimlane;startSize=0;" vertex="1" parent="1">
          <mxGeometry x="40" y="650" width="200" height="210" as="geometry" />
        </mxCell>
        <mxCell id="syA2_hkcK1VpC3jO_S1U-51" value="" style="rounded=0;whiteSpace=wrap;html=1;" vertex="1" parent="syA2_hkcK1VpC3jO_S1U-50">
          <mxGeometry y="50" width="200" height="110" as="geometry" />
        </mxCell>
        <mxCell id="syA2_hkcK1VpC3jO_S1U-52" value="8" style="rounded=0;whiteSpace=wrap;html=1;" vertex="1" parent="syA2_hkcK1VpC3jO_S1U-50">
          <mxGeometry y="160" width="70" height="50" as="geometry" />
        </mxCell>
        <mxCell id="syA2_hkcK1VpC3jO_S1U-53" value="8" style="rounded=0;whiteSpace=wrap;html=1;" vertex="1" parent="syA2_hkcK1VpC3jO_S1U-50">
          <mxGeometry x="70" y="160" width="60" height="50" as="geometry" />
        </mxCell>
        <mxCell id="syA2_hkcK1VpC3jO_S1U-54" value="16" style="rounded=0;whiteSpace=wrap;html=1;" vertex="1" parent="syA2_hkcK1VpC3jO_S1U-50">
          <mxGeometry x="130" y="160" width="70" height="50" as="geometry" />
        </mxCell>
        <mxCell id="syA2_hkcK1VpC3jO_S1U-55" value="0" style="rounded=0;whiteSpace=wrap;html=1;" vertex="1" parent="syA2_hkcK1VpC3jO_S1U-50">
          <mxGeometry width="70" height="50" as="geometry" />
        </mxCell>
        <mxCell id="syA2_hkcK1VpC3jO_S1U-56" value="" style="rounded=0;whiteSpace=wrap;html=1;" vertex="1" parent="syA2_hkcK1VpC3jO_S1U-50">
          <mxGeometry x="70" width="60" height="50" as="geometry" />
        </mxCell>
        <mxCell id="syA2_hkcK1VpC3jO_S1U-57" value="8" style="rounded=0;whiteSpace=wrap;html=1;" vertex="1" parent="syA2_hkcK1VpC3jO_S1U-50">
          <mxGeometry x="130" width="70" height="50" as="geometry" />
        </mxCell>
        <mxCell id="syA2_hkcK1VpC3jO_S1U-58" value="4" style="text;html=1;align=center;verticalAlign=middle;whiteSpace=wrap;rounded=0;" vertex="1" parent="syA2_hkcK1VpC3jO_S1U-50">
          <mxGeometry x="70" y="90" width="60" height="30" as="geometry" />
        </mxCell>
        <mxCell id="syA2_hkcK1VpC3jO_S1U-60" value="8" style="text;html=1;align=center;verticalAlign=middle;whiteSpace=wrap;rounded=0;" vertex="1" parent="syA2_hkcK1VpC3jO_S1U-50">
          <mxGeometry x="70" y="10" width="60" height="30" as="geometry" />
        </mxCell>
        <mxCell id="syA2_hkcK1VpC3jO_S1U-66" value="" style="swimlane;startSize=0;" vertex="1" parent="1">
          <mxGeometry x="600" y="650" width="200" height="210" as="geometry" />
        </mxCell>
        <mxCell id="syA2_hkcK1VpC3jO_S1U-67" value="" style="rounded=0;whiteSpace=wrap;html=1;" vertex="1" parent="syA2_hkcK1VpC3jO_S1U-66">
          <mxGeometry y="50" width="200" height="110" as="geometry" />
        </mxCell>
        <mxCell id="syA2_hkcK1VpC3jO_S1U-68" value="25" style="rounded=0;whiteSpace=wrap;html=1;" vertex="1" parent="syA2_hkcK1VpC3jO_S1U-66">
          <mxGeometry y="160" width="70" height="50" as="geometry" />
        </mxCell>
        <mxCell id="syA2_hkcK1VpC3jO_S1U-69" value="9" style="rounded=0;whiteSpace=wrap;html=1;" vertex="1" parent="syA2_hkcK1VpC3jO_S1U-66">
          <mxGeometry x="70" y="160" width="60" height="50" as="geometry" />
        </mxCell>
        <mxCell id="syA2_hkcK1VpC3jO_S1U-70" value="30" style="rounded=0;whiteSpace=wrap;html=1;" vertex="1" parent="syA2_hkcK1VpC3jO_S1U-66">
          <mxGeometry x="130" y="160" width="70" height="50" as="geometry" />
        </mxCell>
        <mxCell id="syA2_hkcK1VpC3jO_S1U-71" value="16" style="rounded=0;whiteSpace=wrap;html=1;" vertex="1" parent="syA2_hkcK1VpC3jO_S1U-66">
          <mxGeometry width="70" height="50" as="geometry" />
        </mxCell>
        <mxCell id="syA2_hkcK1VpC3jO_S1U-72" value="" style="rounded=0;whiteSpace=wrap;html=1;" vertex="1" parent="syA2_hkcK1VpC3jO_S1U-66">
          <mxGeometry x="70" width="60" height="50" as="geometry" />
        </mxCell>
        <mxCell id="syA2_hkcK1VpC3jO_S1U-73" value="21" style="rounded=0;whiteSpace=wrap;html=1;fontStyle=4" vertex="1" parent="syA2_hkcK1VpC3jO_S1U-66">
          <mxGeometry x="130" width="70" height="50" as="geometry" />
        </mxCell>
        <mxCell id="syA2_hkcK1VpC3jO_S1U-74" value="5" style="text;html=1;align=center;verticalAlign=middle;whiteSpace=wrap;rounded=0;" vertex="1" parent="syA2_hkcK1VpC3jO_S1U-66">
          <mxGeometry x="70" y="90" width="60" height="30" as="geometry" />
        </mxCell>
        <mxCell id="syA2_hkcK1VpC3jO_S1U-76" value="5" style="text;html=1;align=center;verticalAlign=middle;whiteSpace=wrap;rounded=0;" vertex="1" parent="syA2_hkcK1VpC3jO_S1U-66">
          <mxGeometry x="70" y="10" width="60" height="30" as="geometry" />
        </mxCell>
        <mxCell id="syA2_hkcK1VpC3jO_S1U-82" value="" style="swimlane;startSize=0;" vertex="1" parent="1">
          <mxGeometry x="600" y="280" width="200" height="210" as="geometry" />
        </mxCell>
        <mxCell id="syA2_hkcK1VpC3jO_S1U-83" value="" style="rounded=0;whiteSpace=wrap;html=1;" vertex="1" parent="syA2_hkcK1VpC3jO_S1U-82">
          <mxGeometry y="50" width="200" height="110" as="geometry" />
        </mxCell>
        <mxCell id="syA2_hkcK1VpC3jO_S1U-84" value="20" style="rounded=0;whiteSpace=wrap;html=1;" vertex="1" parent="syA2_hkcK1VpC3jO_S1U-82">
          <mxGeometry y="160" width="70" height="50" as="geometry" />
        </mxCell>
        <mxCell id="syA2_hkcK1VpC3jO_S1U-85" value="0" style="rounded=0;whiteSpace=wrap;html=1;" vertex="1" parent="syA2_hkcK1VpC3jO_S1U-82">
          <mxGeometry x="70" y="160" width="60" height="50" as="geometry" />
        </mxCell>
        <mxCell id="syA2_hkcK1VpC3jO_S1U-86" value="30" style="rounded=0;whiteSpace=wrap;html=1;" vertex="1" parent="syA2_hkcK1VpC3jO_S1U-82">
          <mxGeometry x="130" y="160" width="70" height="50" as="geometry" />
        </mxCell>
        <mxCell id="syA2_hkcK1VpC3jO_S1U-87" value="20" style="rounded=0;whiteSpace=wrap;html=1;" vertex="1" parent="syA2_hkcK1VpC3jO_S1U-82">
          <mxGeometry width="70" height="50" as="geometry" />
        </mxCell>
        <mxCell id="syA2_hkcK1VpC3jO_S1U-88" value="" style="rounded=0;whiteSpace=wrap;html=1;" vertex="1" parent="syA2_hkcK1VpC3jO_S1U-82">
          <mxGeometry x="70" width="60" height="50" as="geometry" />
        </mxCell>
        <mxCell id="syA2_hkcK1VpC3jO_S1U-89" value="30" style="rounded=0;whiteSpace=wrap;html=1;" vertex="1" parent="syA2_hkcK1VpC3jO_S1U-82">
          <mxGeometry x="130" width="70" height="50" as="geometry" />
        </mxCell>
        <mxCell id="syA2_hkcK1VpC3jO_S1U-90" value="6" style="text;html=1;align=center;verticalAlign=middle;whiteSpace=wrap;rounded=0;" vertex="1" parent="syA2_hkcK1VpC3jO_S1U-82">
          <mxGeometry x="70" y="90" width="60" height="30" as="geometry" />
        </mxCell>
        <mxCell id="syA2_hkcK1VpC3jO_S1U-92" value="10" style="text;html=1;align=center;verticalAlign=middle;whiteSpace=wrap;rounded=0;" vertex="1" parent="syA2_hkcK1VpC3jO_S1U-82">
          <mxGeometry x="70" y="10" width="60" height="30" as="geometry" />
        </mxCell>
        <mxCell id="syA2_hkcK1VpC3jO_S1U-98" value="" style="swimlane;startSize=0;" vertex="1" parent="1">
          <mxGeometry x="880" y="150" width="200" height="210" as="geometry" />
        </mxCell>
        <mxCell id="syA2_hkcK1VpC3jO_S1U-99" value="" style="rounded=0;whiteSpace=wrap;html=1;" vertex="1" parent="syA2_hkcK1VpC3jO_S1U-98">
          <mxGeometry y="50" width="200" height="110" as="geometry" />
        </mxCell>
        <mxCell id="syA2_hkcK1VpC3jO_S1U-100" value="30" style="rounded=0;whiteSpace=wrap;html=1;" vertex="1" parent="syA2_hkcK1VpC3jO_S1U-98">
          <mxGeometry y="160" width="70" height="50" as="geometry" />
        </mxCell>
        <mxCell id="syA2_hkcK1VpC3jO_S1U-101" value="0" style="rounded=0;whiteSpace=wrap;html=1;" vertex="1" parent="syA2_hkcK1VpC3jO_S1U-98">
          <mxGeometry x="70" y="160" width="60" height="50" as="geometry" />
        </mxCell>
        <mxCell id="syA2_hkcK1VpC3jO_S1U-102" value="32" style="rounded=0;whiteSpace=wrap;html=1;" vertex="1" parent="syA2_hkcK1VpC3jO_S1U-98">
          <mxGeometry x="130" y="160" width="70" height="50" as="geometry" />
        </mxCell>
        <mxCell id="syA2_hkcK1VpC3jO_S1U-103" value="30" style="rounded=0;whiteSpace=wrap;html=1;" vertex="1" parent="syA2_hkcK1VpC3jO_S1U-98">
          <mxGeometry width="70" height="50" as="geometry" />
        </mxCell>
        <mxCell id="syA2_hkcK1VpC3jO_S1U-104" value="" style="rounded=0;whiteSpace=wrap;html=1;" vertex="1" parent="syA2_hkcK1VpC3jO_S1U-98">
          <mxGeometry x="70" width="60" height="50" as="geometry" />
        </mxCell>
        <mxCell id="syA2_hkcK1VpC3jO_S1U-105" value="32" style="rounded=0;whiteSpace=wrap;html=1;" vertex="1" parent="syA2_hkcK1VpC3jO_S1U-98">
          <mxGeometry x="130" width="70" height="50" as="geometry" />
        </mxCell>
        <mxCell id="syA2_hkcK1VpC3jO_S1U-106" value="7" style="text;html=1;align=center;verticalAlign=middle;whiteSpace=wrap;rounded=0;" vertex="1" parent="syA2_hkcK1VpC3jO_S1U-98">
          <mxGeometry x="70" y="90" width="60" height="30" as="geometry" />
        </mxCell>
        <mxCell id="syA2_hkcK1VpC3jO_S1U-108" value="2" style="text;html=1;align=center;verticalAlign=middle;whiteSpace=wrap;rounded=0;" vertex="1" parent="syA2_hkcK1VpC3jO_S1U-98">
          <mxGeometry x="70" y="10" width="60" height="30" as="geometry" />
        </mxCell>
        <mxCell id="syA2_hkcK1VpC3jO_S1U-113" value="" style="swimlane;startSize=0;" vertex="1" parent="1">
          <mxGeometry x="880" y="400" width="200" height="210" as="geometry" />
        </mxCell>
        <mxCell id="syA2_hkcK1VpC3jO_S1U-114" value="" style="rounded=0;whiteSpace=wrap;html=1;" vertex="1" parent="syA2_hkcK1VpC3jO_S1U-113">
          <mxGeometry y="50" width="200" height="110" as="geometry" />
        </mxCell>
        <mxCell id="syA2_hkcK1VpC3jO_S1U-115" value="30" style="rounded=0;whiteSpace=wrap;html=1;" vertex="1" parent="syA2_hkcK1VpC3jO_S1U-113">
          <mxGeometry y="160" width="70" height="50" as="geometry" />
        </mxCell>
        <mxCell id="syA2_hkcK1VpC3jO_S1U-116" value="0" style="rounded=0;whiteSpace=wrap;html=1;" vertex="1" parent="syA2_hkcK1VpC3jO_S1U-113">
          <mxGeometry x="70" y="160" width="60" height="50" as="geometry" />
        </mxCell>
        <mxCell id="syA2_hkcK1VpC3jO_S1U-117" value="32" style="rounded=0;whiteSpace=wrap;html=1;" vertex="1" parent="syA2_hkcK1VpC3jO_S1U-113">
          <mxGeometry x="130" y="160" width="70" height="50" as="geometry" />
        </mxCell>
        <mxCell id="syA2_hkcK1VpC3jO_S1U-118" value="30" style="rounded=0;whiteSpace=wrap;html=1;" vertex="1" parent="syA2_hkcK1VpC3jO_S1U-113">
          <mxGeometry width="70" height="50" as="geometry" />
        </mxCell>
        <mxCell id="syA2_hkcK1VpC3jO_S1U-119" value="" style="rounded=0;whiteSpace=wrap;html=1;" vertex="1" parent="syA2_hkcK1VpC3jO_S1U-113">
          <mxGeometry x="70" width="60" height="50" as="geometry" />
        </mxCell>
        <mxCell id="syA2_hkcK1VpC3jO_S1U-120" value="32" style="rounded=0;whiteSpace=wrap;html=1;" vertex="1" parent="syA2_hkcK1VpC3jO_S1U-113">
          <mxGeometry x="130" width="70" height="50" as="geometry" />
        </mxCell>
        <mxCell id="syA2_hkcK1VpC3jO_S1U-121" value="8" style="text;html=1;align=center;verticalAlign=middle;whiteSpace=wrap;rounded=0;" vertex="1" parent="syA2_hkcK1VpC3jO_S1U-113">
          <mxGeometry x="70" y="90" width="60" height="30" as="geometry" />
        </mxCell>
        <mxCell id="syA2_hkcK1VpC3jO_S1U-123" value="2" style="text;html=1;align=center;verticalAlign=middle;whiteSpace=wrap;rounded=0;" vertex="1" parent="syA2_hkcK1VpC3jO_S1U-113">
          <mxGeometry x="70" y="10" width="60" height="30" as="geometry" />
        </mxCell>
        <mxCell id="syA2_hkcK1VpC3jO_S1U-136" value="" style="endArrow=classic;html=1;rounded=0;entryX=0;entryY=0.5;entryDx=0;entryDy=0;strokeColor=#FF0000;strokeWidth=3;" edge="1" parent="1" target="syA2_hkcK1VpC3jO_S1U-34">
          <mxGeometry width="50" height="50" relative="1" as="geometry">
            <mxPoint x="240" y="370" as="sourcePoint" />
            <mxPoint x="330" y="265" as="targetPoint" />
          </mxGeometry>
        </mxCell>
        <mxCell id="syA2_hkcK1VpC3jO_S1U-137" value="" style="endArrow=classic;html=1;rounded=0;exitX=1;exitY=0.5;exitDx=0;exitDy=0;entryX=0;entryY=0.5;entryDx=0;entryDy=0;strokeColor=#000000;strokeWidth=3;" edge="1" parent="1" source="syA2_hkcK1VpC3jO_S1U-50" target="syA2_hkcK1VpC3jO_S1U-67">
          <mxGeometry width="50" height="50" relative="1" as="geometry">
            <mxPoint x="260" y="770" as="sourcePoint" />
            <mxPoint x="340" y="650" as="targetPoint" />
          </mxGeometry>
        </mxCell>
        <mxCell id="syA2_hkcK1VpC3jO_S1U-138" value="" style="endArrow=classic;html=1;rounded=0;exitX=1;exitY=0.5;exitDx=0;exitDy=0;entryX=0;entryY=0.5;entryDx=0;entryDy=0;strokeColor=#000000;strokeWidth=3;" edge="1" parent="1" source="syA2_hkcK1VpC3jO_S1U-19" target="syA2_hkcK1VpC3jO_S1U-82">
          <mxGeometry width="50" height="50" relative="1" as="geometry">
            <mxPoint x="270" y="405" as="sourcePoint" />
            <mxPoint x="350" y="285" as="targetPoint" />
          </mxGeometry>
        </mxCell>
        <mxCell id="syA2_hkcK1VpC3jO_S1U-139" value="" style="endArrow=classic;html=1;rounded=0;exitX=1;exitY=0.5;exitDx=0;exitDy=0;entryX=0;entryY=0.5;entryDx=0;entryDy=0;strokeColor=#FF0000;strokeWidth=3;" edge="1" parent="1" source="syA2_hkcK1VpC3jO_S1U-34" target="syA2_hkcK1VpC3jO_S1U-82">
          <mxGeometry width="50" height="50" relative="1" as="geometry">
            <mxPoint x="280" y="415" as="sourcePoint" />
            <mxPoint x="360" y="295" as="targetPoint" />
          </mxGeometry>
        </mxCell>
        <mxCell id="syA2_hkcK1VpC3jO_S1U-140" value="" style="endArrow=classic;html=1;rounded=0;exitX=1;exitY=0.5;exitDx=0;exitDy=0;entryX=0;entryY=0.5;entryDx=0;entryDy=0;strokeColor=#000000;strokeWidth=3;" edge="1" parent="1" source="syA2_hkcK1VpC3jO_S1U-19" target="syA2_hkcK1VpC3jO_S1U-66">
          <mxGeometry width="50" height="50" relative="1" as="geometry">
            <mxPoint x="290" y="425" as="sourcePoint" />
            <mxPoint x="370" y="305" as="targetPoint" />
          </mxGeometry>
        </mxCell>
        <mxCell id="syA2_hkcK1VpC3jO_S1U-141" value="" style="endArrow=classic;html=1;rounded=0;exitX=1;exitY=0.5;exitDx=0;exitDy=0;entryX=0;entryY=0.5;entryDx=0;entryDy=0;strokeColor=#FF0000;strokeWidth=3;" edge="1" parent="1" source="syA2_hkcK1VpC3jO_S1U-83" target="syA2_hkcK1VpC3jO_S1U-98">
          <mxGeometry width="50" height="50" relative="1" as="geometry">
            <mxPoint x="300" y="435" as="sourcePoint" />
            <mxPoint x="380" y="315" as="targetPoint" />
          </mxGeometry>
        </mxCell>
        <mxCell id="syA2_hkcK1VpC3jO_S1U-142" value="" style="endArrow=classic;html=1;rounded=0;exitX=1;exitY=0.5;exitDx=0;exitDy=0;entryX=0;entryY=0.5;entryDx=0;entryDy=0;strokeColor=#000000;strokeWidth=3;" edge="1" parent="1" source="syA2_hkcK1VpC3jO_S1U-83" target="syA2_hkcK1VpC3jO_S1U-113">
          <mxGeometry width="50" height="50" relative="1" as="geometry">
            <mxPoint x="310" y="445" as="sourcePoint" />
            <mxPoint x="390" y="325" as="targetPoint" />
          </mxGeometry>
        </mxCell>
        <mxCell id="syA2_hkcK1VpC3jO_S1U-146" value="" style="endArrow=classic;html=1;rounded=0;exitX=1;exitY=0.5;exitDx=0;exitDy=0;strokeColor=#000000;strokeWidth=3;" edge="1" parent="1" source="syA2_hkcK1VpC3jO_S1U-66">
          <mxGeometry width="50" height="50" relative="1" as="geometry">
            <mxPoint x="330" y="465" as="sourcePoint" />
            <mxPoint x="880" y="500" as="targetPoint" />
          </mxGeometry>
        </mxCell>
      </root>
    </mxGraphModel>
  </diagram>
</mxfile>
